<mxfile host="app.diagrams.net" agent="Mozilla/5.0 (Macintosh; Intel Mac OS X 10.15; rv:130.0) Gecko/20100101 Firefox/130.0" version="24.7.16">
  <diagram name="Page-1" id="p7nSWiINIACkewMrgcw5">
    <mxGraphModel dx="1434" dy="769" grid="1" gridSize="10" guides="1" tooltips="1" connect="1" arrows="1" fold="1" page="1" pageScale="1" pageWidth="850" pageHeight="1100" math="0" shadow="0">
      <root>
        <mxCell id="0" />
        <mxCell id="1" parent="0" />
        <mxCell id="phpOuSa4Bpa68OSb786I-29" style="edgeStyle=orthogonalEdgeStyle;rounded=0;orthogonalLoop=1;jettySize=auto;html=1;exitX=0.5;exitY=1;exitDx=0;exitDy=0;exitPerimeter=0;entryX=1;entryY=0.5;entryDx=0;entryDy=0;entryPerimeter=0;strokeWidth=1;startArrow=none;startFill=0;endArrow=classic;endFill=1;" edge="1" parent="1" source="phpOuSa4Bpa68OSb786I-2" target="WkUFo_KOBGsohk5BV7vz-1">
          <mxGeometry relative="1" as="geometry" />
        </mxCell>
        <mxCell id="phpOuSa4Bpa68OSb786I-22" style="edgeStyle=orthogonalEdgeStyle;rounded=0;orthogonalLoop=1;jettySize=auto;html=1;entryX=0;entryY=0.5;entryDx=0;entryDy=0;entryPerimeter=0;strokeWidth=1;startArrow=classic;startFill=1;endArrow=none;endFill=0;exitX=0.5;exitY=1;exitDx=0;exitDy=0;exitPerimeter=0;" edge="1" parent="1" source="phpOuSa4Bpa68OSb786I-1" target="WkUFo_KOBGsohk5BV7vz-1">
          <mxGeometry relative="1" as="geometry">
            <mxPoint x="260" y="420" as="sourcePoint" />
          </mxGeometry>
        </mxCell>
        <mxCell id="WkUFo_KOBGsohk5BV7vz-1" value="&lt;div style=&quot;background-color: rgb(255, 255, 255);&quot;&gt;&lt;pre style=&quot;font-family:&#39;JetBrains Mono&#39;,monospace;font-size:10.5pt;&quot;&gt;&lt;font color=&quot;#080808&quot;&gt;Lambda&lt;/font&gt;&lt;br&gt;&lt;font color=&quot;#080808&quot;&gt;(RetrieveAddressFunctionHandler)&lt;/font&gt;&lt;/pre&gt;&lt;/div&gt;" style="sketch=0;points=[[0,0,0],[0.25,0,0],[0.5,0,0],[0.75,0,0],[1,0,0],[0,1,0],[0.25,1,0],[0.5,1,0],[0.75,1,0],[1,1,0],[0,0.25,0],[0,0.5,0],[0,0.75,0],[1,0.25,0],[1,0.5,0],[1,0.75,0]];outlineConnect=0;fontColor=#232F3E;fillColor=#ED7100;strokeColor=#ffffff;dashed=0;verticalLabelPosition=bottom;verticalAlign=top;align=center;html=1;fontSize=12;fontStyle=0;aspect=fixed;shape=mxgraph.aws4.resourceIcon;resIcon=mxgraph.aws4.lambda;" parent="1" vertex="1">
          <mxGeometry x="450" y="540" width="78" height="78" as="geometry" />
        </mxCell>
        <mxCell id="phpOuSa4Bpa68OSb786I-1" value="&lt;div style=&quot;background-color: rgb(255, 255, 255);&quot;&gt;&lt;pre style=&quot;font-family:&#39;JetBrains Mono&#39;,monospace;font-size:10.5pt;&quot;&gt;&lt;font color=&quot;#080808&quot;&gt;API Gateway&lt;/font&gt;&lt;br&gt;&lt;font color=&quot;#080808&quot;&gt;(AddressApi)&lt;/font&gt;&lt;/pre&gt;&lt;/div&gt;" style="outlineConnect=0;dashed=0;verticalLabelPosition=bottom;verticalAlign=top;align=center;html=1;shape=mxgraph.aws3.api_gateway;fillColor=#D9A741;gradientColor=none;" vertex="1" parent="1">
          <mxGeometry x="250" y="373.5" width="76.5" height="93" as="geometry" />
        </mxCell>
        <mxCell id="phpOuSa4Bpa68OSb786I-2" value="&lt;div style=&quot;background-color: rgb(255, 255, 255);&quot;&gt;&lt;pre style=&quot;font-family:&#39;JetBrains Mono&#39;,monospace;font-size:10.5pt;&quot;&gt;&lt;font color=&quot;#080808&quot;&gt;DynamoDB&lt;/font&gt;&lt;br&gt;&lt;font color=&quot;#080808&quot;&gt;(AddressTable)&lt;/font&gt;&lt;/pre&gt;&lt;/div&gt;" style="sketch=0;points=[[0,0,0],[0.25,0,0],[0.5,0,0],[0.75,0,0],[1,0,0],[0,1,0],[0.25,1,0],[0.5,1,0],[0.75,1,0],[1,1,0],[0,0.25,0],[0,0.5,0],[0,0.75,0],[1,0.25,0],[1,0.5,0],[1,0.75,0]];outlineConnect=0;fontColor=#232F3E;fillColor=#C925D1;strokeColor=#ffffff;dashed=0;verticalLabelPosition=bottom;verticalAlign=top;align=center;html=1;fontSize=12;fontStyle=0;aspect=fixed;shape=mxgraph.aws4.resourceIcon;resIcon=mxgraph.aws4.dynamodb;" vertex="1" parent="1">
          <mxGeometry x="650" y="381" width="78" height="78" as="geometry" />
        </mxCell>
        <mxCell id="phpOuSa4Bpa68OSb786I-4" value="&lt;div style=&quot;background-color: rgb(255, 255, 255);&quot;&gt;&lt;pre style=&quot;font-family:&#39;JetBrains Mono&#39;,monospace;font-size:10.5pt;&quot;&gt;&lt;font color=&quot;#080808&quot;&gt;Lambda&lt;br&gt;(StoreAddressFunctionHandler)&lt;/font&gt;&lt;/pre&gt;&lt;/div&gt;" style="sketch=0;points=[[0,0,0],[0.25,0,0],[0.5,0,0],[0.75,0,0],[1,0,0],[0,1,0],[0.25,1,0],[0.5,1,0],[0.75,1,0],[1,1,0],[0,0.25,0],[0,0.5,0],[0,0.75,0],[1,0.25,0],[1,0.5,0],[1,0.75,0]];outlineConnect=0;fontColor=#232F3E;fillColor=#ED7100;strokeColor=#ffffff;dashed=0;verticalLabelPosition=bottom;verticalAlign=top;align=center;html=1;fontSize=12;fontStyle=0;aspect=fixed;shape=mxgraph.aws4.resourceIcon;resIcon=mxgraph.aws4.lambda;" vertex="1" parent="1">
          <mxGeometry x="450" y="220" width="78" height="78" as="geometry" />
        </mxCell>
        <mxCell id="phpOuSa4Bpa68OSb786I-20" style="edgeStyle=orthogonalEdgeStyle;rounded=0;orthogonalLoop=1;jettySize=auto;html=1;exitX=0.64;exitY=0.5;exitDx=0;exitDy=0;exitPerimeter=0;strokeWidth=1;endArrow=classic;endFill=1;" edge="1" parent="1" source="phpOuSa4Bpa68OSb786I-7" target="phpOuSa4Bpa68OSb786I-1">
          <mxGeometry relative="1" as="geometry" />
        </mxCell>
        <mxCell id="phpOuSa4Bpa68OSb786I-35" style="edgeStyle=orthogonalEdgeStyle;rounded=0;orthogonalLoop=1;jettySize=auto;html=1;exitX=0.28;exitY=0.5;exitDx=0;exitDy=0;exitPerimeter=0;entryX=1;entryY=0.5;entryDx=0;entryDy=0;" edge="1" parent="1" source="phpOuSa4Bpa68OSb786I-7" target="phpOuSa4Bpa68OSb786I-33">
          <mxGeometry relative="1" as="geometry" />
        </mxCell>
        <mxCell id="phpOuSa4Bpa68OSb786I-7" value="&lt;div style=&quot;background-color: rgb(255, 255, 255);&quot;&gt;&lt;pre style=&quot;font-family:&#39;JetBrains Mono&#39;,monospace;font-size:10.5pt;&quot;&gt;&lt;font color=&quot;#080808&quot;&gt;API Key&lt;/font&gt;&lt;br&gt;&lt;font color=&quot;#080808&quot;&gt;(AddressApiKey)&lt;/font&gt;&lt;/pre&gt;&lt;/div&gt;" style="sketch=0;aspect=fixed;pointerEvents=1;shadow=0;dashed=0;html=1;strokeColor=none;labelPosition=center;verticalLabelPosition=bottom;verticalAlign=top;align=center;fillColor=#00188D;shape=mxgraph.mscae.enterprise.key_permissions" vertex="1" parent="1">
          <mxGeometry x="150" y="400.11999999999995" width="20.68" height="39.77" as="geometry" />
        </mxCell>
        <mxCell id="phpOuSa4Bpa68OSb786I-26" style="edgeStyle=orthogonalEdgeStyle;rounded=0;orthogonalLoop=1;jettySize=auto;html=1;entryX=0.5;entryY=0;entryDx=0;entryDy=0;entryPerimeter=0;strokeWidth=1;startArrow=none;startFill=0;endArrow=classic;endFill=1;" edge="1" parent="1" target="phpOuSa4Bpa68OSb786I-2">
          <mxGeometry relative="1" as="geometry">
            <mxPoint x="530" y="260" as="sourcePoint" />
          </mxGeometry>
        </mxCell>
        <mxCell id="phpOuSa4Bpa68OSb786I-33" value="&lt;pre style=&quot;font-family:&#39;JetBrains Mono&#39;,monospace;font-size:10.5pt;&quot;&gt;&lt;font color=&quot;#080808&quot;&gt;Client&lt;/font&gt;&lt;br&gt;&lt;/pre&gt;" style="image;aspect=fixed;perimeter=ellipsePerimeter;html=1;align=center;shadow=0;dashed=0;spacingTop=3;image=img/lib/active_directory/laptop_client.svg;" vertex="1" parent="1">
          <mxGeometry x="20" y="395" width="45" height="50" as="geometry" />
        </mxCell>
        <mxCell id="phpOuSa4Bpa68OSb786I-36" style="edgeStyle=orthogonalEdgeStyle;rounded=0;orthogonalLoop=1;jettySize=auto;html=1;exitX=0.5;exitY=0;exitDx=0;exitDy=0;exitPerimeter=0;entryX=0;entryY=0.5;entryDx=0;entryDy=0;entryPerimeter=0;startArrow=none;startFill=0;endArrow=classic;endFill=1;" edge="1" parent="1" source="phpOuSa4Bpa68OSb786I-1" target="phpOuSa4Bpa68OSb786I-4">
          <mxGeometry relative="1" as="geometry" />
        </mxCell>
        <mxCell id="phpOuSa4Bpa68OSb786I-38" value="&lt;h1&gt;Architecture Diagram&lt;/h1&gt;" style="text;html=1;align=center;verticalAlign=middle;resizable=0;points=[];autosize=1;strokeColor=none;fillColor=none;" vertex="1" parent="1">
          <mxGeometry x="354" y="100" width="270" height="70" as="geometry" />
        </mxCell>
      </root>
    </mxGraphModel>
  </diagram>
</mxfile>
